<svg width="28" height="28" viewBox="0 0 28 28" fill="none" xmlns="http://www.w3.org/2000/svg">
<rect width="28" height="28" rx="8" fill="#F1F1F1"/>
<path d="M9.75 9.5C9.05964 9.5 8.5 10.0596 8.5 10.75V17.25C8.5 17.9404 9.05964 18.5 9.75 18.5H15.25C15.6642 18.5 16 18.8358 16 19.25C16 19.6642 15.6642 20 15.25 20H9.75C8.23122 20 7 18.7688 7 17.25V10.75C7 9.23122 8.23122 8 9.75 8H11.2639C12.3056 8 13.2578 8.58851 13.7236 9.52016L13.8944 9.8618C13.9368 9.9465 14.0233 10 14.118 10H18.25C19.7688 10 21 11.2312 21 12.75V14.25C21 14.6642 20.6642 15 20.25 15C19.8358 15 19.5 14.6642 19.5 14.25V12.75C19.5 12.0596 18.9404 11.5 18.25 11.5H14.118C13.4552 11.5 12.8492 11.1255 12.5528 10.5326L12.382 10.191C12.1702 9.7675 11.7374 9.5 11.2639 9.5H9.75Z" fill="#777777"/>
<path d="M17 18.5C17 18.0858 17.3358 17.75 17.75 17.75H18.75V16.75C18.75 16.3358 19.0858 16 19.5 16C19.9142 16 20.25 16.3358 20.25 16.75V17.75H21.25C21.6642 17.75 22 18.0858 22 18.5C22 18.9142 21.6642 19.25 21.25 19.25H20.25V20.25C20.25 20.6642 19.9142 21 19.5 21C19.0858 21 18.75 20.6642 18.75 20.25V19.25H17.75C17.3358 19.25 17 18.9142 17 18.5Z" fill="#777777"/>
</svg>
