<svg width="28" height="28" viewBox="0 0 28 28" fill="none" xmlns="http://www.w3.org/2000/svg">
<rect width="28" height="28" rx="8" fill="#F1F1F1"/>
<path fill-rule="evenodd" clip-rule="evenodd" d="M16.3226 17.3833C15.3996 18.0841 14.2484 18.5 13 18.5C9.96243 18.5 7.5 16.0376 7.5 13C7.5 9.96243 9.96243 7.5 13 7.5C16.0376 7.5 18.5 9.96243 18.5 13C18.5 14.2484 18.0841 15.3996 17.3833 16.3226L20.2803 19.2197C20.5732 19.5126 20.5732 19.9874 20.2803 20.2803C19.9874 20.5732 19.5126 20.5732 19.2197 20.2803L16.3226 17.3833ZM17 13C17 15.2091 15.2091 17 13 17C10.7909 17 9 15.2091 9 13C9 10.7909 10.7909 9 13 9C15.2091 9 17 10.7909 17 13Z" fill="#777777"/>
</svg>
