<svg width="20" height="20" viewBox="0 0 20 20" fill="none" xmlns="http://www.w3.org/2000/svg">
<path d="M3.33333 16.6666C2.875 16.6666 2.47917 16.5069 2.14583 16.1875C1.82639 15.8541 1.66667 15.4583 1.66667 15V4.99998C1.66667 4.54165 1.82639 4.15276 2.14583 3.83331C2.47917 3.49998 2.875 3.33331 3.33333 3.33331H16.6667C17.125 3.33331 17.5139 3.49998 17.8333 3.83331C18.1667 4.15276 18.3333 4.54165 18.3333 4.99998V15C18.3333 15.4583 18.1667 15.8541 17.8333 16.1875C17.5139 16.5069 17.125 16.6666 16.6667 16.6666H3.33333ZM10 10.8333L16.6667 6.66665V4.99998L10 9.16665L3.33333 4.99998V6.66665L10 10.8333Z" fill="#999999"/>
</svg>
