<svg width="20" height="20" viewBox="0 0 20 20" fill="none" xmlns="http://www.w3.org/2000/svg">
<path fill-rule="evenodd" clip-rule="evenodd" d="M5.83333 2.91666C5.50181 2.91666 5.18387 3.04836 4.94945 3.28278C4.71503 3.5172 4.58333 3.83514 4.58333 4.16666V15.8333C4.58333 16.1648 4.71503 16.4828 4.94945 16.7172C5.18387 16.9516 5.50181 17.0833 5.83333 17.0833H14.1667C14.4982 17.0833 14.8161 16.9516 15.0505 16.7172C15.285 16.4828 15.4167 16.1648 15.4167 15.8333V7.84508C15.4166 7.73462 15.3727 7.6286 15.2946 7.5505L10.7829 3.03879C10.7048 2.96066 10.5988 2.91671 10.4883 2.91666H5.83333ZM4.36019 2.69352C4.75089 2.30282 5.2808 2.08333 5.83333 2.08333H10.4883C10.8198 2.0834 11.1378 2.21512 11.3721 2.44953M11.3721 2.44953L15.8838 6.96116C16.1182 7.19552 16.2499 7.51343 16.25 7.84491V15.8333C16.25 16.3859 16.0305 16.9158 15.6398 17.3065C15.2491 17.6972 14.7192 17.9167 14.1667 17.9167H5.83333C5.2808 17.9167 4.75089 17.6972 4.36019 17.3065C3.96949 16.9158 3.75 16.3859 3.75 15.8333V4.16666C3.75 3.61413 3.96949 3.08422 4.36019 2.69352" fill="#E72A2A"/>
<path fill-rule="evenodd" clip-rule="evenodd" d="M6.22657 8.3099C6.47836 8.05811 6.81985 7.91666 7.17593 7.91666H10.3241C10.6802 7.91666 11.0216 8.05811 11.2734 8.3099C11.5252 8.56168 11.6667 8.90318 11.6667 9.25925V9.46448L12.8722 8.77038C12.8793 8.7663 12.8865 8.76242 12.8938 8.75875C13.0279 8.69176 13.1769 8.66013 13.3266 8.66687C13.4763 8.67362 13.6219 8.71851 13.7494 8.79729C13.8769 8.87606 13.9821 8.98611 14.0552 9.117C14.1282 9.24789 14.1666 9.39527 14.1667 9.54514V12.6768C14.1666 12.8267 14.1282 12.9743 14.0552 13.1052C13.9821 13.2361 13.8769 13.3461 13.7494 13.4249C13.6219 13.5037 13.4763 13.5486 13.3266 13.5553C13.1769 13.5621 13.0279 13.5305 12.8938 13.4635C12.8865 13.4598 12.8793 13.4559 12.8722 13.4518L11.6667 12.7577V12.963C11.6667 13.319 11.5252 13.6605 11.2734 13.9123C11.0216 14.1641 10.6802 14.3056 10.3241 14.3056H7.17593C6.81985 14.3056 6.47836 14.1641 6.22657 13.9123C5.97479 13.6605 5.83333 13.319 5.83333 12.963V9.25925C5.83333 8.90318 5.97479 8.56168 6.22657 8.3099ZM11.6667 11.7961L13.2718 12.7203C13.2773 12.7222 13.2832 12.7231 13.2891 12.7228C13.297 12.7225 13.3047 12.7201 13.3114 12.716C13.3181 12.7118 13.3236 12.706 13.3275 12.6992C13.3313 12.6923 13.3333 12.6845 13.3333 12.6766V9.54559C13.3333 9.53769 13.3313 9.52994 13.3275 9.52305C13.3236 9.51617 13.3181 9.51037 13.3114 9.50623C13.3047 9.50208 13.297 9.49972 13.2891 9.49936C13.2832 9.4991 13.2773 9.49996 13.2718 9.5019L11.6667 10.4261V11.7961ZM10.8333 9.25925C10.8333 9.12419 10.7797 8.99466 10.6842 8.89915C10.5887 8.80365 10.4591 8.74999 10.3241 8.74999H7.17593C7.04086 8.74999 6.91133 8.80365 6.81583 8.89915C6.72032 8.99466 6.66667 9.12419 6.66667 9.25925V12.963C6.66667 13.098 6.72032 13.2276 6.81583 13.3231C6.91133 13.4186 7.04086 13.4722 7.17593 13.4722H10.3241C10.4591 13.4722 10.5887 13.4186 10.6842 13.3231C10.7797 13.2276 10.8333 13.098 10.8333 12.963V9.25925Z" fill="#E72A2A"/>
</svg>
