<svg width="20" height="21" viewBox="0 0 20 21" fill="none" xmlns="http://www.w3.org/2000/svg">
<path d="M10.75 6.0017C10.75 5.58749 10.4142 5.2517 10 5.2517C9.58579 5.2517 9.25 5.58749 9.25 6.0017V9.5017H5.75C5.33579 9.5017 5 9.83749 5 10.2517C5 10.6659 5.33579 11.0017 5.75 11.0017H9.25L9.25 14.5017C9.25 14.9159 9.58579 15.2517 10 15.2517C10.4142 15.2517 10.75 14.9159 10.75 14.5017V11.0017H14.25C14.6642 11.0017 15 10.6659 15 10.2517C15 9.83749 14.6642 9.5017 14.25 9.5017H10.75V6.0017Z" fill="#999999"/>
</svg>
