<svg width="20" height="20" viewBox="0 0 20 20" fill="none" xmlns="http://www.w3.org/2000/svg">
<path fill-rule="evenodd" clip-rule="evenodd" d="M5.83333 2.91668C5.50181 2.91668 5.18387 3.04837 4.94945 3.28279C4.71503 3.51721 4.58333 3.83516 4.58333 4.16668V15.8333C4.58333 16.1649 4.71503 16.4828 4.94945 16.7172C5.18387 16.9516 5.50181 17.0833 5.83333 17.0833H14.1667C14.4982 17.0833 14.8161 16.9516 15.0505 16.7172C15.285 16.4828 15.4167 16.1649 15.4167 15.8333V7.8451C15.4166 7.73463 15.3727 7.62862 15.2946 7.55052L10.7829 3.0388C10.7048 2.96068 10.5988 2.91672 10.4883 2.91668H5.83333ZM4.36019 2.69354C4.75089 2.30284 5.2808 2.08334 5.83333 2.08334H10.4883C10.8198 2.08341 11.1378 2.21514 11.3721 2.44955M11.3721 2.44955L15.8838 6.96117C16.1182 7.19553 16.2499 7.51345 16.25 7.84492V15.8333C16.25 16.3859 16.0305 16.9158 15.6398 17.3065C15.2491 17.6972 14.7192 17.9167 14.1667 17.9167H5.83333C5.2808 17.9167 4.75089 17.6972 4.36019 17.3065C3.96949 16.9158 3.75 16.3859 3.75 15.8333V4.16668C3.75 3.61414 3.96949 3.08424 4.36019 2.69354" fill="#3F82EF"/>
<path fill-rule="evenodd" clip-rule="evenodd" d="M7.44958 10.7827L4.58333 13.6489V14.3097C4.58333 14.5398 4.39679 14.7263 4.16667 14.7263C3.93655 14.7263 3.75 14.5398 3.75 14.3097V13.4763C3.75 13.3658 3.7939 13.2598 3.87204 13.1817L6.86037 10.1934C7.25106 9.80279 7.78091 9.58334 8.33333 9.58334C8.88576 9.58334 9.41557 9.80275 9.80625 10.1933L11.6667 12.0537L12.6937 11.0267C13.0844 10.6361 13.6142 10.4167 14.1667 10.4167C14.7191 10.4167 15.2489 10.6361 15.6396 11.0266L16.128 11.515C16.2061 11.5932 16.25 11.6991 16.25 11.8097V12.643C16.25 12.8731 16.0635 13.0597 15.8333 13.0597C15.6032 13.0597 15.4167 12.8731 15.4167 12.643V11.9822L15.0504 11.616C14.816 11.3817 14.4981 11.25 14.1667 11.25C13.8352 11.25 13.5174 11.3816 13.283 11.6159L12.2559 12.643L13.628 14.015C13.7907 14.1777 13.7907 14.4416 13.628 14.6043C13.4652 14.767 13.2014 14.767 13.0387 14.6043L9.21708 10.7827C8.98268 10.5483 8.66477 10.4167 8.33333 10.4167C8.0019 10.4167 7.68399 10.5483 7.44958 10.7827Z" fill="#3F82EF"/>
<path fill-rule="evenodd" clip-rule="evenodd" d="M11.25 8.33334C11.25 8.10322 11.4365 7.91668 11.6667 7.91668H11.675C11.9051 7.91668 12.0917 8.10322 12.0917 8.33334C12.0917 8.56346 11.9051 8.75001 11.675 8.75001H11.6667C11.4365 8.75001 11.25 8.56346 11.25 8.33334Z" fill="#3F82EF"/>
</svg>
