<svg width="20" height="20" viewBox="0 0 20 20" fill="none" xmlns="http://www.w3.org/2000/svg">
<path fill-rule="evenodd" clip-rule="evenodd" d="M8.0006 4.17606C8.0006 3.41611 8.61666 2.80005 9.37661 2.80005H10.6232C11.3831 2.80005 11.9992 3.41611 11.9992 4.17606V4.86369C11.9992 5.05456 12.1254 5.25964 12.3575 5.38091C12.5028 5.45681 12.6439 5.5395 12.7805 5.62855C13.0021 5.77298 13.2456 5.78112 13.4127 5.68467L14.0124 5.33841C14.6706 4.95844 15.5121 5.18393 15.8921 5.84207L16.5154 6.92162C16.8953 7.57976 16.6699 8.42131 16.0117 8.80129L15.3644 9.17503C15.2008 9.26946 15.0869 9.47766 15.0952 9.73541C15.0969 9.79073 15.0978 9.84626 15.0978 9.90197C15.0978 9.99318 15.0954 10.0839 15.0907 10.174C15.0768 10.4377 15.1916 10.6525 15.3585 10.7489L16.0117 11.126C16.6698 11.506 16.8953 12.3475 16.5154 13.0057L15.8921 14.0852C15.5121 14.7433 14.6706 14.9688 14.0124 14.5889L13.312 14.1845C13.1484 14.09 12.9108 14.0956 12.6913 14.2322C12.5827 14.2999 12.4714 14.3635 12.3575 14.423C12.1254 14.5443 11.9992 14.7494 11.9992 14.9403V15.7512C11.9992 16.5112 11.3831 17.1272 10.6232 17.1272H9.37662C8.61666 17.1272 8.0006 16.5112 8.0006 15.7512V14.9402C8.0006 14.7493 7.87444 14.5443 7.64232 14.423C7.52844 14.3635 7.4171 14.2998 7.3085 14.2322C7.08906 14.0955 6.85147 14.09 6.68779 14.1845L5.98734 14.5889C5.3292 14.9688 4.48765 14.7433 4.10767 14.0852L3.48439 13.0057C3.10442 12.3475 3.32991 11.506 3.98805 11.126L4.64139 10.7488C4.80834 10.6524 4.92311 10.4377 4.90922 10.1739C4.90448 10.0838 4.90208 9.99316 4.90208 9.90197C4.90208 9.84628 4.90298 9.79078 4.90476 9.73549C4.91304 9.47774 4.79909 9.26955 4.63553 9.17511L3.98804 8.80129C3.3299 8.42131 3.10441 7.57976 3.48439 6.92162L4.10766 5.84207C4.48764 5.18393 5.32919 4.95844 5.98733 5.33841L6.58714 5.68472C6.75419 5.78116 6.99776 5.77302 7.21931 5.62859C7.3559 5.53955 7.49704 5.45687 7.64232 5.38096C7.87444 5.25969 8.0006 5.05462 8.0006 4.86375V4.17606ZM10 11.5C10.8284 11.5 11.5 10.8284 11.5 10C11.5 9.17157 10.8284 8.5 10 8.5C9.17157 8.5 8.5 9.17157 8.5 10C8.5 10.8284 9.17157 11.5 10 11.5Z" fill="#999999"/>
</svg>
