<svg width="20" height="21" viewBox="0 0 20 21" fill="none" xmlns="http://www.w3.org/2000/svg">
<path fill-rule="evenodd" clip-rule="evenodd" d="M9.90518 18.2358C9.96776 18.2566 10.0287 18.2574 10.0913 18.2358C10.8909 17.9718 16.5865 15.8662 16.5865 9.65413V4.09488C16.5866 4.02338 16.5622 3.95389 16.5169 3.89748C16.4717 3.84108 16.4083 3.80101 16.3369 3.78367L10.0781 2.26126C10.0257 2.24853 9.9708 2.24853 9.91835 2.26126L3.65953 3.78367C3.58813 3.80101 3.52476 3.84108 3.47953 3.89748C3.43431 3.95389 3.40983 4.02338 3.41 4.09488V9.65333C3.41 15.803 9.10718 17.963 9.90518 18.2358ZM13.9627 7.51571C14.0255 7.43019 14.0704 7.33349 14.0948 7.23112C14.1191 7.12876 14.1225 7.02273 14.1047 6.9191C14.0869 6.81547 14.0482 6.71626 13.9909 6.62714C13.9336 6.53802 13.8589 6.46074 13.7708 6.3997C13.6828 6.33866 13.5832 6.29506 13.4779 6.2714C13.3725 6.24773 13.2633 6.24446 13.1567 6.26177C13.05 6.27908 12.9479 6.31663 12.8561 6.37228C12.7644 6.42793 12.6848 6.50058 12.622 6.5861L9.06929 11.4181L7.28635 9.68533C7.13103 9.5396 6.92301 9.45896 6.70708 9.46079C6.49116 9.46261 6.2846 9.54675 6.13191 9.69507C5.97923 9.8434 5.89262 10.0441 5.89074 10.2538C5.88886 10.4636 5.97187 10.6657 6.12188 10.8165L8.59247 13.2166C8.67705 13.2986 8.77899 13.3618 8.89122 13.4017C9.00344 13.4416 9.12327 13.4573 9.24238 13.4477C9.36148 13.4381 9.47701 13.4035 9.58095 13.3461C9.68488 13.2888 9.77472 13.2102 9.84423 13.1158L13.9627 7.51571Z" fill="#999999"/>
</svg>
